<svg width="120" height="120" viewBox="0 0 120 120" fill="none" xmlns="http://www.w3.org/2000/svg">
<rect y="0.140137" width="119.702" height="119.702" rx="16" fill="white"/>
<path fill-rule="evenodd" clip-rule="evenodd" d="M85.3678 90.4789V50.8678H87.6978V48.5378H83.0376V41.5477H78.3776V32.2273H71.3873V27.5671H48.0868V32.2273H41.0966V41.5477H36.4364V48.5378H31.7764V50.8678H34.1064V90.4789H22.4561V92.8089H97.018V90.4789H85.3678ZM71.3873 69.5084H83.0376V64.8482H71.3873V69.5084ZM71.3873 83.4887H83.0376V71.8384H71.3873V83.4887ZM50.4168 32.2273H69.0573V29.8973H50.4168V32.2273ZM43.4266 41.5477H76.0475V34.5575H43.4266V41.5477ZM38.7666 48.5378H80.7076V43.8777H38.7666V48.5378ZM83.0376 50.8678V62.5182H71.3873V53.1978H48.0867V62.5182H36.4364V50.8678H83.0376ZM36.4364 83.4887H48.0868V71.8384H36.4364V83.4887ZM36.4364 69.5084H48.0868V64.8482H36.4364V69.5084ZM36.4364 90.4789H48.0868V85.8187H36.4364V90.4789ZM55.0769 90.4789V64.8482C55.0769 62.2745 57.1633 60.188 59.7371 60.188C62.3108 60.188 64.3971 62.2745 64.3971 64.8482V90.4789H55.0769ZM66.7273 90.4789V64.8482C66.7273 60.9877 63.5976 57.858 59.7371 57.858C55.8764 57.858 52.7469 60.9877 52.7469 64.8482V90.4789H50.4168V55.528H69.0573V90.4789H66.7273ZM71.3873 90.4789H83.0376V85.8187H71.3873V90.4789Z" fill="#4F3267"/>
</svg>
