<svg width="121" height="121" viewBox="0 0 121 121" fill="none" xmlns="http://www.w3.org/2000/svg">
<rect x="0.385742" y="0.490723" width="119.702" height="119.702" rx="16" fill="white"/>
<path fill-rule="evenodd" clip-rule="evenodd" d="M104.917 80.2187V77.4063H82.2084V57.7189H99.2397V54.9063H82.2084V46.4688C82.2051 44.6861 81.0676 43.099 79.3698 42.5088V40.8439H76.5313V42.5088C74.8334 43.099 73.696 44.6861 73.6928 46.4688V52.0938H70.8541V43.6563H67.8453C67.9583 43.1959 68.0157 42.7238 68.0157 42.2501C68.0157 38.7667 64.9459 35.8826 60.9193 35.3242V31H58.0808V35.3242C54.0542 35.8869 50.9844 38.7667 50.9844 42.2501C50.9846 42.7238 51.0418 43.1959 51.1548 43.6563H48.146V52.0938H45.3073V46.4688C45.3041 44.6861 44.1667 43.099 42.4688 42.5088V40.8439H39.6304V42.5088C37.9325 43.099 36.795 44.6861 36.7917 46.4688V54.9063H19.7604V57.7189H36.7917V77.4063H14.0835V80.2187H36.7917V83.0314H14.0835V85.8438H104.917V83.0314H82.2084V80.2187H104.917ZM39.6304 66.1562H42.4688V63.3438H39.6304V66.1562ZM50.9844 71.7812H53.8229V54.9063H50.9844V71.7812ZM55.952 46.4688H58.0808V49.2814H60.9193V46.4688H63.0481V52.0938H55.952V46.4688ZM70.8541 63.3438H73.6926V60.5313H70.8541V63.3438ZM70.8541 71.7815H73.6926V66.1564H70.8541V71.7815ZM65.1772 71.7812H68.0157V54.9063H65.1772V71.7812ZM56.6616 71.7815H62.3385V66.1564H56.6616V71.7815ZM56.6616 57.7187H62.3385V54.9063H56.6616V57.7187ZM56.6616 63.3438H62.3385V60.5313H56.6616V63.3438ZM45.3073 71.7815H48.1458V66.1564H45.3073V71.7815ZM45.3073 63.3438H48.1458V60.5313H45.3073V63.3438ZM45.3073 77.4063H73.6926V74.5939H45.3073V77.4063ZM76.5313 66.1562H79.3698V63.3438H76.5313V66.1562ZM76.5313 77.4063H79.3698V68.9688H76.5313V77.4063ZM79.3698 57.7189V60.5313H76.5313V54.9063H79.3698V57.7189ZM77.9505 45.0626C78.7345 45.0626 79.3698 45.6922 79.3698 46.4688H76.5313C76.5313 45.6922 77.1668 45.0626 77.9505 45.0626ZM76.5313 52.0938H79.3698V49.2814H76.5313V52.0938ZM70.8541 57.7187H73.6926V54.9063H70.8541V57.7187ZM65.8868 52.0938H68.0157V46.4688H65.8868V52.0938ZM53.8229 42.2501C53.8229 39.9214 56.3635 38.0313 59.5001 38.0313C62.6366 38.0313 65.1772 39.9214 65.1772 42.2501C65.1688 42.7388 65.0501 43.2193 64.8295 43.6563H54.1708C53.95 43.2193 53.8313 42.7388 53.8229 42.2501ZM50.9844 52.0938H53.1133V46.4688H50.9844V52.0938ZM45.3073 57.7187H48.1458V54.9063H45.3073V57.7187ZM41.0496 45.0626C41.8333 45.0626 42.4688 45.6922 42.4688 46.4688H39.6304C39.6304 45.6922 40.2657 45.0626 41.0496 45.0626ZM39.6304 52.0938H42.4688V49.2814H39.6304V52.0938ZM39.6304 60.5313H42.4688V54.9063H39.6304V60.5313ZM39.6304 77.4063H42.4688V68.9688H39.6304V77.4063ZM39.6304 83.0312H79.37V80.2187H39.6304V83.0312Z" fill="#4F3267"/>
</svg>
