<svg width="121" height="120" viewBox="0 0 121 120" fill="none" xmlns="http://www.w3.org/2000/svg">
<rect x="0.385498" width="119.702" height="119.702" fill="white"/>
<path fill-rule="evenodd" clip-rule="evenodd" d="M36.3317 87.329H52.642V84.999H36.3317V87.329ZM54.9722 87.329H64.2924V84.999H54.9722V87.329ZM66.6224 87.329H82.9327V84.999H66.6224V87.329ZM36.3317 82.669H38.6617V80.339H36.3317V82.669ZM40.9917 82.669H43.3217V80.339H40.9917V82.669ZM45.6518 82.669H47.9818V80.339H45.6518V82.669ZM50.312 82.669H52.642V80.339H50.312V82.669ZM66.6224 82.669H68.9524V80.339H66.6224V82.669ZM71.2825 82.669H73.6125V80.339H71.2825V82.669ZM75.9427 82.669H78.2727V80.339H75.9427V82.669ZM80.6027 82.669H82.9327V80.339H80.6027V82.669ZM29.3415 87.3292H34.0017V75.6789H29.3415V87.3292ZM36.3317 78.0089H52.642V75.6789H36.3317V78.0089ZM66.6224 78.0089H82.9327V75.6789H66.6224V78.0089ZM85.2629 80.339V75.6789H89.9231V87.3292H85.2629V80.339ZM36.3317 73.3487H38.6617V71.0187H36.3317V73.3487ZM80.6027 73.3487H82.9327V71.0187H80.6027V73.3487ZM54.9722 80.339V54.7084H64.2924V82.669H54.9722V80.339ZM54.9722 50.0482V45.3882H64.2924V52.3784H54.9722V50.0482ZM57.3022 43.0582H61.9624V38.398H57.3022V43.0582ZM58.4672 24.4175V36.0678H54.9722V43.058H52.642V73.3489H40.9917V68.6887H34.0015V73.3489H29.3415V68.6887H27.0113V87.3292H22.3513V89.6592H96.9132V87.3292H92.2531V68.6887H89.9231V73.3489H85.2629V68.6887H78.2727V73.3489H66.6224V43.058H64.2924V36.0678H60.7972V24.4175H58.4672V24.4175Z" fill="#4F3267"/>
</svg>
