<svg width="120" height="120" viewBox="0 0 120 120" fill="none" xmlns="http://www.w3.org/2000/svg">
<rect width="119.702" height="119.702" fill="white"/>
<g clip-path="url(#clip0_747_8472)">
<path d="M47.5681 69.1343H38.2017V78.8299H47.5681V69.1343Z" stroke="#4F3267" stroke-width="2" stroke-linecap="round" stroke-linejoin="round"/>
<path d="M35.8584 65.239H49.9115V67.3959C49.9115 68.3552 49.1316 69.1343 48.1711 69.1343H37.5989C36.6384 69.1343 35.8584 68.3552 35.8584 67.3959V65.239Z" stroke="#4F3267" stroke-width="2" stroke-linecap="round" stroke-linejoin="round"/>
<path d="M47.5681 82.7219H38.2017V92.4176H47.5681V82.7219Z" stroke="#4F3267" stroke-width="2" stroke-linecap="round" stroke-linejoin="round"/>
<path d="M46.5123 59.915H39.261V65.2391H46.5123V59.915Z" stroke="#4F3267" stroke-width="2" stroke-linecap="round" stroke-linejoin="round"/>
<path d="M35.8584 78.8301H49.9115V80.9869C49.9115 81.9463 49.1316 82.7254 48.1711 82.7254H37.5989C36.6384 82.7254 35.8584 81.9463 35.8584 80.9869V78.8301Z" stroke="#4F3267" stroke-width="2" stroke-linecap="round" stroke-linejoin="round"/>
<path d="M37.449 57.884H48.3243V58.7175C48.3243 59.3775 47.7862 59.915 47.1254 59.915H38.6445C37.9837 59.915 37.4456 59.3775 37.4456 58.7175V57.884H37.449Z" fill="#4F3267" stroke="#4F3267" stroke-linecap="round" stroke-linejoin="round"/>
<path d="M46.5123 52.5564H39.261V57.8805H46.5123V52.5564Z" stroke="#4F3267" stroke-width="2" stroke-linecap="round" stroke-linejoin="round"/>
<path d="M37.449 50.5288H48.3243V51.3623C48.3243 52.0223 47.7862 52.5598 47.1254 52.5598H38.6445C37.9837 52.5598 37.4456 52.0223 37.4456 51.3623V50.5288H37.449Z" fill="#4F3267" stroke="#4F3267" stroke-linecap="round" stroke-linejoin="round"/>
<path d="M46.5123 45.2014H39.261V50.5255H46.5123V45.2014Z" stroke="#4F3267" stroke-width="2" stroke-linecap="round" stroke-linejoin="round"/>
<path d="M37.449 43.1704H48.3243V44.0039C48.3243 44.6639 47.7862 45.2014 47.1254 45.2014H38.6445C37.9837 45.2014 37.4456 44.6639 37.4456 44.0039V43.1704H37.449Z" fill="#4F3267" stroke="#4F3267" stroke-linecap="round" stroke-linejoin="round"/>
<path d="M45.6779 39.0642H40.0886V43.1704H45.6779V39.0642Z" stroke="#4F3267" stroke-width="2" stroke-linecap="round" stroke-linejoin="round"/>
<path d="M38.6921 37.4993H47.0777V37.8701C47.0777 38.5301 46.5395 39.0676 45.8788 39.0676H39.891C39.2303 39.0676 38.6921 38.5301 38.6921 37.8701V37.4993Z" fill="#4F3267" stroke="#4F3267" stroke-linecap="round" stroke-linejoin="round"/>
<path d="M45.6779 33.3931H40.0886V37.4993H45.6779V33.3931Z" stroke="#4F3267" stroke-width="2" stroke-linecap="round" stroke-linejoin="round"/>
<path d="M38.6921 31.8281H47.0777V32.1989C47.0777 32.8589 46.5395 33.3964 45.8788 33.3964H39.891C39.2303 33.3964 38.6921 32.8589 38.6921 32.1989V31.8281Z" fill="#4F3267" stroke="#4F3267" stroke-linecap="round" stroke-linejoin="round"/>
<path d="M45.6779 27.7219H40.0886V31.8281H45.6779V27.7219Z" stroke="#4F3267" stroke-width="2" stroke-linecap="round" stroke-linejoin="round"/>
<path d="M38.6921 26.1536H47.0777V26.5244C47.0777 27.1844 46.5395 27.7219 45.8788 27.7219H39.891C39.2303 27.7219 38.6921 27.1844 38.6921 26.5244V26.1536Z" fill="#4F3267" stroke="#4F3267" stroke-linecap="round" stroke-linejoin="round"/>
<path d="M39.9353 26.1536C39.9353 24.5275 41.2568 23.2075 42.8849 23.2075C44.513 23.2075 45.8345 24.5275 45.8345 26.1536" stroke="#4F3267" stroke-width="2" stroke-linecap="round" stroke-linejoin="round"/>
<path d="M50.7732 96.7925H34.9966V94.1593C34.9966 93.2 35.7766 92.4209 36.7371 92.4209H49.0327C49.9932 92.4209 50.7732 93.2 50.7732 94.1593V96.7925Z" stroke="#4F3267" stroke-width="2" stroke-linecap="round" stroke-linejoin="round"/>
<path d="M41.5088 76.6766V73.3188C41.5088 72.5602 42.1253 71.2913 42.8848 71.2913C43.6443 71.2913 44.2608 72.5602 44.2608 73.3188V76.6766H41.5054H41.5088Z" stroke="#4F3267" stroke-width="2" stroke-linecap="round" stroke-linejoin="round"/>
<path d="M41.5088 90.264V86.9062C41.5088 86.1476 42.1253 84.8787 42.8848 84.8787C43.6443 84.8787 44.2608 86.1476 44.2608 86.9062V90.264H41.5054H41.5088Z" stroke="#4F3267" stroke-width="2" stroke-linecap="round" stroke-linejoin="round"/>
<path d="M81.8189 69.1343H72.4524V78.8299H81.8189V69.1343Z" stroke="#4F3267" stroke-width="2" stroke-linecap="round" stroke-linejoin="round"/>
<path d="M70.1091 65.239H84.1589V67.3959C84.1589 68.3552 83.3789 69.1343 82.4184 69.1343H71.8496C70.8891 69.1343 70.1091 68.3552 70.1091 67.3959V65.239Z" stroke="#4F3267" stroke-width="2" stroke-linecap="round" stroke-linejoin="round"/>
<path d="M81.8189 82.7219H72.4524V92.4176H81.8189V82.7219Z" stroke="#4F3267" stroke-width="2" stroke-linecap="round" stroke-linejoin="round"/>
<path d="M80.7631 59.915H73.5117V65.2391H80.7631V59.915Z" stroke="#4F3267" stroke-width="2" stroke-linecap="round" stroke-linejoin="round"/>
<path d="M70.1091 78.8301H84.1589V80.9869C84.1589 81.9463 83.3789 82.7254 82.4184 82.7254H71.8496C70.8891 82.7254 70.1091 81.9463 70.1091 80.9869V78.8301Z" stroke="#4F3267" stroke-width="2" stroke-linecap="round" stroke-linejoin="round"/>
<path d="M71.6997 57.884H82.575V58.7175C82.575 59.3775 82.0369 59.915 81.3761 59.915H72.8986C72.2379 59.915 71.6997 59.3775 71.6997 58.7175V57.884Z" fill="#4F3267" stroke="#4F3267" stroke-linecap="round" stroke-linejoin="round"/>
<path d="M80.7631 52.5564H73.5117V57.8805H80.7631V52.5564Z" stroke="#4F3267" stroke-width="2" stroke-linecap="round" stroke-linejoin="round"/>
<path d="M71.6997 50.5288H82.575V51.3623C82.575 52.0223 82.0369 52.5598 81.3761 52.5598H72.8986C72.2379 52.5598 71.6997 52.0223 71.6997 51.3623V50.5288Z" fill="#4F3267" stroke="#4F3267" stroke-linecap="round" stroke-linejoin="round"/>
<path d="M80.7631 45.2014H73.5117V50.5255H80.7631V45.2014Z" stroke="#4F3267" stroke-width="2" stroke-linecap="round" stroke-linejoin="round"/>
<path d="M71.6997 43.1704H82.575V44.0039C82.575 44.6639 82.0369 45.2014 81.3761 45.2014H72.8986C72.2379 45.2014 71.6997 44.6639 71.6997 44.0039V43.1704Z" fill="#4F3267" stroke="#4F3267" stroke-linecap="round" stroke-linejoin="round"/>
<path d="M79.9286 39.0642H74.3394V43.1704H79.9286V39.0642Z" stroke="#4F3267" stroke-width="2" stroke-linecap="round" stroke-linejoin="round"/>
<path d="M72.9429 37.4993H81.3284V37.8701C81.3284 38.5301 80.7903 39.0676 80.1295 39.0676H74.1418C73.481 39.0676 72.9429 38.5301 72.9429 37.8701V37.4993Z" fill="#4F3267" stroke="#4F3267" stroke-linecap="round" stroke-linejoin="round"/>
<path d="M79.9286 33.3931H74.3394V37.4993H79.9286V33.3931Z" stroke="#4F3267" stroke-width="2" stroke-linecap="round" stroke-linejoin="round"/>
<path d="M72.9429 31.8281H81.3284V32.1989C81.3284 32.8589 80.7903 33.3964 80.1295 33.3964H74.1418C73.481 33.3964 72.9429 32.8589 72.9429 32.1989V31.8281Z" fill="#4F3267" stroke="#4F3267" stroke-linecap="round" stroke-linejoin="round"/>
<path d="M79.9286 27.7219H74.3394V31.8281H79.9286V27.7219Z" stroke="#4F3267" stroke-width="2" stroke-linecap="round" stroke-linejoin="round"/>
<path d="M72.9429 26.1536H81.3284V26.5244C81.3284 27.1844 80.7903 27.7219 80.1295 27.7219H74.1418C73.481 27.7219 72.9429 27.1844 72.9429 26.5244V26.1536Z" fill="#4F3267" stroke="#4F3267" stroke-linecap="round" stroke-linejoin="round"/>
<path d="M74.186 26.1536C74.186 24.5275 75.5076 23.2075 77.1356 23.2075C78.7637 23.2075 80.0852 24.5275 80.0852 26.1536" stroke="#4F3267" stroke-width="2" stroke-linecap="round" stroke-linejoin="round"/>
<path d="M85.0239 96.7925H69.244V94.1593C69.244 93.2 70.0239 92.4209 70.9844 92.4209H83.2835C84.244 92.4209 85.0239 93.2 85.0239 94.1593V96.7925Z" stroke="#4F3267" stroke-width="2" stroke-linecap="round" stroke-linejoin="round"/>
<path d="M75.7595 76.6766V73.3188C75.7595 72.5602 76.376 71.2913 77.1355 71.2913C77.8951 71.2913 78.5116 72.5602 78.5116 73.3188V76.6766H75.7561H75.7595Z" stroke="#4F3267" stroke-width="2" stroke-linecap="round" stroke-linejoin="round"/>
<path d="M75.7595 90.264V86.9062C75.7595 86.1476 76.376 84.8787 77.1355 84.8787C77.8951 84.8787 78.5116 86.1476 78.5116 86.9062V90.264H75.7561H75.7595Z" stroke="#4F3267" stroke-width="2" stroke-linecap="round" stroke-linejoin="round"/>
<path d="M54.2983 96.7924V82.8545C54.2983 79.7042 56.8562 74.4346 60.0102 74.4346C63.1641 74.4346 65.722 79.7008 65.722 82.8545V96.7924H54.2949H54.2983Z" stroke="#4F3267" stroke-width="2" stroke-linecap="round" stroke-linejoin="round"/>
<path d="M52.2649 72.3832V70.359C52.2649 69.8997 52.8814 69.1343 53.6409 69.1343C54.4004 69.1343 55.0169 69.8997 55.0169 70.359V72.3832H52.2615H52.2649Z" stroke="#4F3267" stroke-width="2" stroke-linecap="round" stroke-linejoin="round"/>
<path d="M65 72.3832V70.359C65 69.8997 65.6165 69.1343 66.376 69.1343C67.1355 69.1343 67.752 69.8997 67.752 70.359V72.3832H64.9966H65Z" stroke="#4F3267" stroke-width="2" stroke-linecap="round" stroke-linejoin="round"/>
<path d="M49.9114 67.2734H70.1089" stroke="#4F3267" stroke-width="2" stroke-linecap="round" stroke-linejoin="round"/>
<path d="M71.6961 61.1091H48.3208V63.3544H71.6961V61.1091Z" stroke="#4F3267" stroke-width="2" stroke-linecap="round" stroke-linejoin="round"/>
<path d="M49.3086 63.3542V65.2389" stroke="#4F3267" stroke-width="2" stroke-linecap="round" stroke-linejoin="round"/>
<path d="M70.7119 63.3542V65.2389" stroke="#4F3267" stroke-width="2" stroke-linecap="round" stroke-linejoin="round"/>
<path d="M50.7732 96.7925H54.2984" stroke="#4F3267" stroke-width="2" stroke-linecap="round" stroke-linejoin="round"/>
<path d="M65.7222 96.7925H69.2474" stroke="#4F3267" stroke-width="2" stroke-linecap="round" stroke-linejoin="round"/>
<path d="M84.1621 67.2734H88.0756V96.7925H85.0238" stroke="#4F3267" stroke-width="2" stroke-linecap="round" stroke-linejoin="round"/>
<path d="M80.7595 63.3542H89.7922V67.2733H88.0756" stroke="#4F3267" stroke-width="2" stroke-linecap="round" stroke-linejoin="round"/>
<path d="M35.8412 67.2734H31.9243V96.7925H34.9761" stroke="#4F3267" stroke-width="2" stroke-linecap="round" stroke-linejoin="round"/>
<path d="M39.2405 63.3542H30.2112V67.2733H31.9244" stroke="#4F3267" stroke-width="2" stroke-linecap="round" stroke-linejoin="round"/>
<path d="M31.9243 63.3544V61.3302C31.9243 60.8709 32.5408 60.1055 33.3003 60.1055C34.0599 60.1055 34.6764 60.8709 34.6764 61.3302V63.3544H31.9243Z" stroke="#4F3267" stroke-width="2" stroke-linecap="round" stroke-linejoin="round"/>
<path d="M85.3201 63.3544V61.3302C85.3201 60.8709 85.9365 60.1055 86.6961 60.1055C87.4556 60.1055 88.0721 60.8709 88.0721 61.3302V63.3544H85.3167H85.3201Z" stroke="#4F3267" stroke-width="2" stroke-linecap="round" stroke-linejoin="round"/>
</g>
<defs>
<clipPath id="clip0_747_8472">
<rect width="60" height="74" fill="white" transform="translate(30 23)"/>
</clipPath>
</defs>
</svg>
