<svg width="120" height="120" viewBox="0 0 120 120" fill="none" xmlns="http://www.w3.org/2000/svg">
<rect x="0.245361" width="119.702" height="119.702" rx="16" fill="white"/>
<path fill-rule="evenodd" clip-rule="evenodd" d="M99.2394 83.0192V63.1492C99.2363 61.3501 98.0988 59.7483 96.401 59.1526V54.6336H93.5625V59.1526C91.8646 59.7483 90.7272 61.3501 90.7238 63.1492V71.6649H87.8853C87.8853 69.3135 85.979 67.4072 83.6274 67.4072C81.2759 67.4072 79.3697 69.3135 79.3697 71.6649H76.5311V63.1492H70.8541V54.6336C70.8497 48.915 66.5928 44.0923 60.9193 43.3775V34.7639H58.0806V43.3775C52.407 44.0923 48.1501 48.915 48.1457 54.6336V63.1492H42.4686V71.6649H39.6301C39.6301 69.3135 37.7238 67.4072 35.3722 67.4072C33.0208 67.4072 31.1145 69.3135 31.1145 71.6649H28.2758V63.1492C28.2727 61.3501 27.1352 59.7483 25.4373 59.1526V54.6336H22.5989V59.1526C20.901 59.7483 19.7635 61.3501 19.7604 63.1492V83.0192H14.0833V85.8576H104.917V83.0192H99.2394ZM94.9817 61.73C95.7654 61.73 96.401 62.3655 96.401 63.1492H93.5625C93.5625 62.3655 94.1978 61.73 94.9817 61.73ZM83.6274 70.2456C84.4114 70.2456 85.0469 70.8811 85.0469 71.6649H82.2082C82.2082 70.8811 82.8437 70.2456 83.6274 70.2456ZM70.8541 71.6651H73.6926V65.9879H70.8541V71.6651ZM70.8541 77.342H73.6926V74.5035H70.8541V77.342ZM50.9842 54.6336C50.9842 49.9307 54.7969 46.118 59.4998 46.118C64.203 46.118 68.0154 49.9307 68.0154 54.6336V57.4723H50.9842V54.6336ZM50.9842 63.1492H68.0154V60.3108H50.9842V63.1492ZM45.3073 71.6651H48.1457V65.9879H45.3073V71.6651ZM45.3073 77.342H48.1457V74.5035H45.3073V77.342ZM35.3722 70.2456C36.1561 70.2456 36.7916 70.8811 36.7916 71.6649H33.953C33.953 70.8811 34.5885 70.2456 35.3722 70.2456ZM24.0181 61.73C24.802 61.73 25.4373 62.3655 25.4373 63.1492H22.5989C22.5989 62.3655 23.2344 61.73 24.0181 61.73ZM22.5989 83.0192H25.4373V65.9879H22.5989V83.0192ZM28.2758 83.0192H42.4686V74.5035H28.2758V83.0192ZM45.3073 83.0189H48.1457V80.1805H45.3073V83.0189ZM56.6613 83.0192V74.5035C56.6613 72.9359 57.9322 71.6649 59.4998 71.6649C61.0677 71.6649 62.3385 72.9359 62.3385 74.5035V83.0192H56.6613ZM65.177 83.0192V74.5035C65.177 71.368 62.6353 68.8264 59.4998 68.8264C56.3645 68.8264 53.8229 71.368 53.8229 74.5035V83.0192H50.9842V65.9879H68.0154V83.0192H65.177ZM70.8541 83.0189H73.6926V80.1805H70.8541V83.0189ZM76.5311 83.0192H90.7238V74.5035H76.5311V83.0192ZM93.5625 83.0192H96.401V65.9879H93.5625V83.0192Z" fill="#4F3267"/>
</svg>
