<svg width="120" height="120" viewBox="0 0 120 120" fill="none" xmlns="http://www.w3.org/2000/svg">
<rect x="0.10498" width="119.702" height="119.702" rx="16" fill="white"/>
<path fill-rule="evenodd" clip-rule="evenodd" d="M93.1812 82.2028V56.5721H90.851V51.9119H76.8707V42.5917C76.8707 40.8908 75.4949 39.3914 73.3757 38.3976V35.6016H71.0455V38.3976C68.9263 39.3856 67.5505 40.885 67.5505 42.5917V44.9217H53.5702V42.5917C53.5702 40.8908 52.1942 39.3914 50.075 38.3976V35.6016H47.745V38.3976C45.6258 39.3856 44.2498 40.885 44.2498 42.5917V51.9119H30.2695V56.5721H27.9395V82.2028H23.2793V84.5328H97.8412V82.2028H93.1812ZM39.5898 82.2028H34.9296V70.5524C34.9296 69.9431 35.7266 69.0565 37.2596 68.3879C38.7929 69.0565 39.5898 69.9431 39.5898 70.5524V82.2028ZM44.2498 82.2028H41.9198V70.5524C41.9198 68.5544 40.0337 66.8244 37.2596 65.8923C34.4858 66.8244 32.5996 68.5544 32.5996 70.5524V82.2028H30.2695V58.9021H32.0171V61.2323H34.3471V58.9021H36.0946V61.2323H38.4248V58.9021H40.1723V61.2323H42.5023V58.9021H44.2498V82.2028ZM32.5996 56.5721H44.25V54.2421H32.5996V56.5721ZM46.58 42.5917C46.58 41.9824 47.3768 41.0958 48.91 40.427C50.4432 41.0958 51.24 41.9824 51.24 42.5917V44.9217H46.58V42.5917ZM46.58 56.5721H51.2402V54.2421H46.58V56.5721ZM46.58 82.2028H51.2402V77.5426H46.58V82.2028ZM67.5505 82.2028H53.5702V70.5524C53.5702 67.4069 56.421 64.598 60.5603 63.6171C64.6997 64.598 67.5505 67.4023 67.5505 70.5524V82.2028ZM69.8805 82.2028H74.5407V77.5426H69.8805V82.2028ZM74.5407 75.2126H69.8805V70.5524C69.8805 66.0636 65.9195 62.304 60.5603 61.2323C55.2012 62.304 51.24 66.0636 51.24 70.5524V75.2126H46.58V58.9021H74.5407V75.2126ZM53.5702 56.5721H55.3177V54.2421H53.5702V56.5721ZM57.6477 56.5721H59.3952V54.2421H57.6477V56.5721ZM61.7253 56.5721H63.4728V54.2421H61.7253V56.5721ZM65.803 56.5721H67.5505V54.2421H65.803V56.5721ZM69.8805 56.5721H74.5407V54.2421H69.8805V56.5721ZM46.58 51.9121H74.5407V47.2519H46.58V51.9121ZM74.5407 44.9217H69.8805V42.5917C69.8805 41.9824 70.6775 41.0958 72.2107 40.427C73.7437 41.0958 74.5407 41.9824 74.5407 42.5917V44.9217ZM76.8707 56.5721H88.521V54.2421H76.8707V56.5721ZM86.191 82.2028H81.5309V70.5524C81.5309 69.9431 82.3278 69.0565 83.8609 68.3879C85.3941 69.0565 86.191 69.9431 86.191 70.5524V82.2028ZM88.521 82.2028V70.5524C88.521 68.5544 86.6349 66.8244 83.8609 65.8923C81.087 66.8244 79.2009 68.5544 79.2009 70.5524V82.2028H76.8707V58.9021H78.6184V61.2323H80.9484V58.9021H82.6959V61.2323H85.026V58.9021H86.7735V61.2323H89.1035V58.9021H90.851V82.2028H88.521Z" fill="#4F3267"/>
</svg>
