<svg width="120" height="120" viewBox="0 0 120 120" fill="none" xmlns="http://www.w3.org/2000/svg">
<rect x="0.105469" width="119.702" height="119.702" rx="16" fill="white"/>
<path fill-rule="evenodd" clip-rule="evenodd" d="M90.852 79.2222V74.562H88.522V65.2418H93.1822V62.9118H88.522V55.9217H93.1822V53.5915H88.522V48.9315C88.522 47.6445 83.8276 46.6015 78.0367 46.6015C75.8807 46.6015 73.8779 46.7464 72.2117 46.9943V44.2713H74.5417V41.9413H69.8815V39.6113H51.241V41.9413H46.5808V44.2713H48.911V46.9943C47.2446 46.7464 45.2419 46.6015 43.0858 46.6015C37.295 46.6015 32.6006 47.6445 32.6006 48.9315V53.5915H27.9404V55.9217H32.6006V62.9118H27.9404V65.2418H32.6006V74.562H30.2704V79.2222H23.2803V81.5524H97.8422V79.2222H90.852ZM69.8815 74.562H86.1918V72.232H69.8815V74.562ZM62.8913 74.562H58.2313V62.9119C58.2313 60.8896 59.2219 59.1302 60.5613 58.4587C61.9007 59.1302 62.8913 60.8896 62.8913 62.9119V74.562ZM65.2215 62.9119C65.2215 59.4608 63.22 56.5827 60.5613 55.9217C57.9024 56.5827 55.9011 59.4608 55.9011 62.9119V74.562H53.5711V53.5915H67.5515V74.562H65.2215V62.9119ZM86.192 65.2419V69.902H69.8815V55.6299C71.8017 55.099 74.7329 54.7567 78.0367 54.7567C81.3406 54.7567 84.2718 55.099 86.192 55.6299V65.2419ZM86.192 49.8047V53.2936C84.2699 52.7652 81.3327 52.4265 78.0367 52.4265C74.7408 52.4265 71.8036 52.7652 69.8815 53.2936V49.8047C71.8017 49.2738 74.7329 48.9315 78.0367 48.9315C81.3406 48.9315 84.2718 49.2738 86.192 49.8047ZM51.241 44.2713H69.8815V47.4684C68.4264 47.8686 67.5515 48.377 67.5515 48.9315V51.2615H53.5711V48.9315C53.5711 48.377 52.6962 47.8686 51.241 47.4684V44.2713ZM51.241 49.8047V53.2936C49.3189 52.7652 46.3818 52.4265 43.0858 52.4265C39.7899 52.4265 36.8527 52.7652 34.9306 53.2936V49.8047C36.8508 49.2738 39.782 48.9315 43.0858 48.9315C46.3897 48.9315 49.321 49.2738 51.241 49.8047ZM34.9306 65.2419V55.6299C36.8508 55.099 39.782 54.7567 43.0858 54.7567C46.3897 54.7567 49.321 55.099 51.241 55.6299V69.902H34.9306V65.2419ZM34.9306 74.562H51.241V72.232H34.9306V74.562ZM32.6006 79.2222H88.522V76.8922H32.6006V79.2222Z" fill="#4F3267"/>
</svg>
